<?xml version="1.0" standalone="no"?>
<!DOCTYPE svg PUBLIC "-//W3C//DTD SVG 20010904//EN"
 "http://www.w3.org/TR/2001/REC-SVG-20010904/DTD/svg10.dtd">
<svg version="1.0" xmlns="http://www.w3.org/2000/svg"
 width="1000.000000pt" height="1000.000000pt" viewBox="0 0 1000.000000 1000.000000"
 preserveAspectRatio="xMidYMid meet">
<metadata>
Created by potrace 1.14, written by Peter Selinger 2001-2017
</metadata>
<g transform="translate(0.000000,1000.000000) scale(0.100000,-0.100000)"
fill="#000000" stroke="none">
<path d="M8141 8043 c-48 -6 -175 -91 -222 -148 -9 -11 -26 -31 -38 -44 -12
-13 -21 -29 -21 -35 0 -11 -10 -31 -47 -96 -11 -19 -23 -48 -27 -65 -9 -37
-33 -65 -56 -65 -9 0 -37 21 -61 48 -53 56 -183 162 -219 178 -129 58 -193 66
-297 39 -78 -20 -150 -44 -182 -61 -14 -8 -31 -14 -37 -14 -6 0 -20 -11 -33
-24 l-22 -23 77 -6 c77 -7 239 -50 249 -68 4 -5 13 -9 20 -9 25 0 149 -86 192
-133 48 -52 53 -61 83 -145 29 -83 18 -95 -44 -52 -44 29 -54 32 -153 36 -130
6 -161 -6 -252 -97 -74 -74 -111 -134 -111 -177 0 -18 -7 -35 -16 -40 -11 -6
-17 -31 -21 -88 l-6 -79 35 30 c72 62 94 78 138 98 58 26 136 47 178 47 76 0
220 -105 286 -208 24 -38 46 -126 46 -184 l0 -28 -214 0 -214 0 -7 -28 c-3
-17 2 -54 15 -92 11 -36 23 -87 26 -115 4 -27 13 -62 20 -77 8 -15 14 -36 14
-46 0 -35 32 -52 98 -52 33 0 64 -5 67 -11 4 -5 15 -74 26 -152 10 -78 24
-151 29 -162 6 -12 10 -47 8 -79 l-3 -59 -52 -13 c-73 -19 -134 -52 -228 -123
-44 -34 -85 -61 -91 -61 -7 0 -19 -10 -27 -23 -8 -13 -32 -42 -54 -64 -21 -22
-64 -68 -95 -101 l-57 -61 -27 47 c-43 74 -130 177 -188 220 -88 67 -277 150
-394 172 -95 19 -278 8 -377 -23 -44 -13 -129 -39 -190 -57 -60 -18 -135 -46
-165 -63 -101 -55 -145 -76 -161 -77 -11 0 -23 16 -34 43 -42 104 -225 587
-225 593 0 4 7 12 16 19 15 11 16 25 5 146 -6 74 -14 158 -18 187 l-5 53 -82
55 c-44 30 -88 54 -97 54 -11 0 -20 -21 -33 -77 -25 -112 -26 -113 -43 -113
-8 0 -44 20 -79 45 -34 25 -67 45 -72 45 -5 0 -28 -45 -52 -99 l-43 -100 113
-135 c68 -82 126 -143 148 -153 23 -12 39 -29 47 -53 7 -19 62 -166 123 -325
62 -160 112 -298 112 -306 0 -9 -23 -37 -50 -63 -28 -26 -50 -48 -50 -51 0 -4
-34 -45 -62 -76 -10 -10 -18 -24 -18 -30 0 -9 -53 -11 -192 -8 -254 5 -254 4
-53 -169 143 -124 134 -109 135 -234 0 -76 -4 -108 -12 -108 -6 0 -35 18 -64
40 l-53 40 -94 0 c-111 0 -205 -27 -254 -72 -17 -17 -44 -58 -60 -92 l-28 -61
-3 -1132 -2 -1133 312 0 313 0 55 76 55 76 749 -6 c412 -3 1149 -6 1638 -6
558 0 888 -4 888 -10 0 -9 39 -72 60 -97 5 -7 10 -17 10 -22 0 -20 56 -24 279
-18 294 9 320 12 333 46 7 18 9 358 5 1052 -4 960 -6 1028 -22 1055 -24 39
-106 114 -125 114 -9 0 -33 9 -55 20 -22 11 -47 20 -56 20 -13 0 -17 16 -23
92 -3 50 -6 117 -6 149 0 82 -64 368 -106 473 -36 91 -75 156 -114 191 -12 11
-35 38 -50 61 -16 22 -60 67 -99 98 -49 40 -71 65 -71 80 0 19 69 421 86 499
4 22 11 27 34 27 16 0 32 5 36 12 10 16 63 361 57 371 -2 4 -64 7 -138 7 -151
0 -145 -4 -145 89 0 46 9 78 49 170 27 62 65 139 85 171 49 78 346 377 419
421 32 18 57 37 57 41 0 14 -107 19 -187 9 -81 -10 -103 -19 -226 -90 -64 -37
-227 -173 -227 -189 0 -8 -9 -12 -22 -10 -23 3 -23 5 -26 188 -3 188 10 351
32 405 7 17 16 47 20 68 4 22 20 63 37 93 33 62 34 65 17 62 -7 0 -28 -3 -47
-5z"/>
<path d="M1090 4845 l0 -2555 414 0 414 0 7 268 c4 147 6 695 3 1217 l-5 950
23 63 c13 35 30 74 38 88 9 13 16 28 16 34 0 12 100 130 139 164 13 12 36 32
51 46 34 31 142 90 164 90 9 0 30 7 45 15 73 37 340 49 450 20 73 -19 159 -61
193 -95 8 -9 38 -33 66 -55 32 -24 68 -65 95 -110 43 -69 44 -73 53 -190 5
-66 8 -277 6 -470 -1 -192 -5 -722 -8 -1176 -5 -617 -4 -831 5 -847 l12 -22
414 0 415 0 3 1048 c3 1610 3 1668 -12 1752 -7 41 -19 85 -27 97 -8 12 -14 31
-14 42 0 24 -76 199 -95 221 -7 8 -17 27 -20 43 -4 15 -13 27 -21 27 -8 0 -14
9 -14 21 0 43 -236 246 -361 310 -24 13 -46 25 -49 29 -28 31 -186 68 -405 96
-184 23 -406 15 -530 -20 -240 -66 -405 -127 -405 -148 0 -4 -7 -8 -15 -8 -22
0 -75 -28 -105 -55 -24 -21 -116 -75 -129 -75 -3 0 -5 391 -3 870 l2 870 -405
0 -405 0 0 -2555z"/>
</g>
</svg>
